<mxfile host="Electron" modified="2023-10-10T13:16:16.730Z" agent="Mozilla/5.0 (Windows NT 10.0; Win64; x64) AppleWebKit/537.36 (KHTML, like Gecko) draw.io/21.6.5 Chrome/114.0.5735.243 Electron/25.3.1 Safari/537.36" etag="H2nPQNCjvZv1PzauhaI0" version="21.6.5" type="device">
  <diagram name="Page-1" id="6SX-YVDo_g5XtdErG8Jm">
    <mxGraphModel dx="1877" dy="621" grid="1" gridSize="10" guides="1" tooltips="1" connect="1" arrows="1" fold="1" page="1" pageScale="1" pageWidth="827" pageHeight="1169" math="0" shadow="0">
      <root>
        <mxCell id="0" />
        <mxCell id="1" parent="0" />
        <mxCell id="zgwpxaIfBUWsn_owNHMs-1" value="" style="rounded=0;whiteSpace=wrap;html=1;" parent="1" vertex="1">
          <mxGeometry x="-810" y="70" width="200" height="60" as="geometry" />
        </mxCell>
        <mxCell id="zgwpxaIfBUWsn_owNHMs-2" value="" style="endArrow=classic;html=1;rounded=0;exitX=1;exitY=0.167;exitDx=0;exitDy=0;exitPerimeter=0;" parent="1" source="zgwpxaIfBUWsn_owNHMs-1" edge="1">
          <mxGeometry width="50" height="50" relative="1" as="geometry">
            <mxPoint x="-590" y="80" as="sourcePoint" />
            <mxPoint x="-460" y="80" as="targetPoint" />
          </mxGeometry>
        </mxCell>
        <mxCell id="zgwpxaIfBUWsn_owNHMs-3" value="" style="endArrow=classic;html=1;rounded=0;entryX=1;entryY=0.833;entryDx=0;entryDy=0;entryPerimeter=0;" parent="1" target="zgwpxaIfBUWsn_owNHMs-1" edge="1">
          <mxGeometry width="50" height="50" relative="1" as="geometry">
            <mxPoint x="-452" y="120.05000000000001" as="sourcePoint" />
            <mxPoint x="-601" y="120.00000000000006" as="targetPoint" />
          </mxGeometry>
        </mxCell>
        <mxCell id="zgwpxaIfBUWsn_owNHMs-5" value="" style="ellipse;whiteSpace=wrap;html=1;aspect=fixed;" parent="1" vertex="1">
          <mxGeometry x="-460" y="50" width="90" height="90" as="geometry" />
        </mxCell>
        <mxCell id="zgwpxaIfBUWsn_owNHMs-6" value="" style="endArrow=none;html=1;rounded=0;" parent="1" edge="1">
          <mxGeometry width="50" height="50" relative="1" as="geometry">
            <mxPoint x="-460" y="80" as="sourcePoint" />
            <mxPoint x="-370" y="80" as="targetPoint" />
            <Array as="points">
              <mxPoint x="-440" y="80" />
              <mxPoint x="-420" y="80" />
            </Array>
          </mxGeometry>
        </mxCell>
        <mxCell id="zgwpxaIfBUWsn_owNHMs-7" value="1.0" style="text;html=1;strokeColor=none;fillColor=none;align=center;verticalAlign=middle;whiteSpace=wrap;rounded=0;" parent="1" vertex="1">
          <mxGeometry x="-445" y="50" width="60" height="30" as="geometry" />
        </mxCell>
        <mxCell id="zgwpxaIfBUWsn_owNHMs-9" value="Login" style="text;html=1;strokeColor=none;fillColor=none;align=center;verticalAlign=middle;whiteSpace=wrap;rounded=0;" parent="1" vertex="1">
          <mxGeometry x="-445" y="90" width="60" height="30" as="geometry" />
        </mxCell>
        <mxCell id="zgwpxaIfBUWsn_owNHMs-10" value="" style="endArrow=classic;html=1;rounded=0;" parent="1" edge="1">
          <mxGeometry width="50" height="50" relative="1" as="geometry">
            <mxPoint x="-220" y="80" as="sourcePoint" />
            <mxPoint x="-370" y="80" as="targetPoint" />
          </mxGeometry>
        </mxCell>
        <mxCell id="zgwpxaIfBUWsn_owNHMs-11" value="" style="endArrow=classic;html=1;rounded=0;" parent="1" edge="1">
          <mxGeometry width="50" height="50" relative="1" as="geometry">
            <mxPoint x="-336" y="120" as="sourcePoint" />
            <mxPoint x="-216" y="120" as="targetPoint" />
            <Array as="points">
              <mxPoint x="-376" y="120" />
            </Array>
          </mxGeometry>
        </mxCell>
        <mxCell id="zgwpxaIfBUWsn_owNHMs-12" value="" style="endArrow=none;html=1;rounded=0;" parent="1" edge="1">
          <mxGeometry width="50" height="50" relative="1" as="geometry">
            <mxPoint x="-200" y="120" as="sourcePoint" />
            <mxPoint x="-80" y="120" as="targetPoint" />
          </mxGeometry>
        </mxCell>
        <mxCell id="zgwpxaIfBUWsn_owNHMs-13" value="" style="endArrow=none;html=1;rounded=0;" parent="1" edge="1">
          <mxGeometry width="50" height="50" relative="1" as="geometry">
            <mxPoint x="-200" y="79" as="sourcePoint" />
            <mxPoint x="-80" y="80" as="targetPoint" />
          </mxGeometry>
        </mxCell>
        <mxCell id="zgwpxaIfBUWsn_owNHMs-14" value="Login Master" style="text;html=1;strokeColor=none;fillColor=none;align=center;verticalAlign=middle;whiteSpace=wrap;rounded=0;" parent="1" vertex="1">
          <mxGeometry x="-180" y="85" width="80" height="30" as="geometry" />
        </mxCell>
        <mxCell id="zgwpxaIfBUWsn_owNHMs-15" value="ADMIN" style="text;html=1;strokeColor=none;fillColor=none;align=center;verticalAlign=middle;whiteSpace=wrap;rounded=0;" parent="1" vertex="1">
          <mxGeometry x="-740" y="85" width="60" height="30" as="geometry" />
        </mxCell>
        <mxCell id="zgwpxaIfBUWsn_owNHMs-20" value="" style="edgeStyle=segmentEdgeStyle;endArrow=classic;html=1;curved=0;rounded=0;endSize=8;startSize=8;exitX=0.06;exitY=0.8;exitDx=0;exitDy=0;exitPerimeter=0;" parent="1" edge="1">
          <mxGeometry width="50" height="50" relative="1" as="geometry">
            <mxPoint x="-456" y="240" as="sourcePoint" />
            <mxPoint x="-637" y="130" as="targetPoint" />
            <Array as="points">
              <mxPoint x="-637" y="240" />
            </Array>
          </mxGeometry>
        </mxCell>
        <mxCell id="zgwpxaIfBUWsn_owNHMs-27" value="" style="endArrow=classic;html=1;rounded=0;" parent="1" edge="1">
          <mxGeometry width="50" height="50" relative="1" as="geometry">
            <mxPoint x="-620" y="200" as="sourcePoint" />
            <mxPoint x="-465" y="200" as="targetPoint" />
          </mxGeometry>
        </mxCell>
        <mxCell id="zgwpxaIfBUWsn_owNHMs-28" value="" style="endArrow=none;html=1;rounded=0;" parent="1" edge="1">
          <mxGeometry width="50" height="50" relative="1" as="geometry">
            <mxPoint x="-620" y="200" as="sourcePoint" />
            <mxPoint x="-620" y="130" as="targetPoint" />
          </mxGeometry>
        </mxCell>
        <mxCell id="zgwpxaIfBUWsn_owNHMs-29" value="" style="ellipse;whiteSpace=wrap;html=1;aspect=fixed;" parent="1" vertex="1">
          <mxGeometry x="-465" y="160" width="100" height="100" as="geometry" />
        </mxCell>
        <mxCell id="zgwpxaIfBUWsn_owNHMs-30" value="" style="endArrow=none;html=1;rounded=0;" parent="1" edge="1">
          <mxGeometry width="50" height="50" relative="1" as="geometry">
            <mxPoint x="-460" y="191" as="sourcePoint" />
            <mxPoint x="-370" y="191" as="targetPoint" />
          </mxGeometry>
        </mxCell>
        <mxCell id="zgwpxaIfBUWsn_owNHMs-32" value="2.0" style="text;html=1;strokeColor=none;fillColor=none;align=center;verticalAlign=middle;whiteSpace=wrap;rounded=0;" parent="1" vertex="1">
          <mxGeometry x="-445" y="161" width="60" height="30" as="geometry" />
        </mxCell>
        <mxCell id="zgwpxaIfBUWsn_owNHMs-33" value="Manage&amp;nbsp;&lt;br&gt;Product" style="text;html=1;strokeColor=none;fillColor=none;align=center;verticalAlign=middle;whiteSpace=wrap;rounded=0;" parent="1" vertex="1">
          <mxGeometry x="-445" y="210" width="60" height="30" as="geometry" />
        </mxCell>
        <mxCell id="zgwpxaIfBUWsn_owNHMs-34" value="" style="endArrow=classic;html=1;rounded=0;" parent="1" edge="1">
          <mxGeometry width="50" height="50" relative="1" as="geometry">
            <mxPoint x="-215" y="200" as="sourcePoint" />
            <mxPoint x="-365" y="200" as="targetPoint" />
          </mxGeometry>
        </mxCell>
        <mxCell id="zgwpxaIfBUWsn_owNHMs-35" value="" style="endArrow=classic;html=1;rounded=0;" parent="1" edge="1">
          <mxGeometry width="50" height="50" relative="1" as="geometry">
            <mxPoint x="-333" y="240" as="sourcePoint" />
            <mxPoint x="-213" y="240" as="targetPoint" />
            <Array as="points">
              <mxPoint x="-373" y="240" />
            </Array>
          </mxGeometry>
        </mxCell>
        <mxCell id="zgwpxaIfBUWsn_owNHMs-37" value="" style="endArrow=none;html=1;rounded=0;" parent="1" edge="1">
          <mxGeometry width="50" height="50" relative="1" as="geometry">
            <mxPoint x="-200" y="239" as="sourcePoint" />
            <mxPoint x="-80" y="239" as="targetPoint" />
          </mxGeometry>
        </mxCell>
        <mxCell id="zgwpxaIfBUWsn_owNHMs-38" value="" style="endArrow=none;html=1;rounded=0;" parent="1" edge="1">
          <mxGeometry width="50" height="50" relative="1" as="geometry">
            <mxPoint x="-200" y="198" as="sourcePoint" />
            <mxPoint x="-80" y="199" as="targetPoint" />
          </mxGeometry>
        </mxCell>
        <mxCell id="zgwpxaIfBUWsn_owNHMs-40" value="Product Master" style="text;html=1;strokeColor=none;fillColor=none;align=center;verticalAlign=middle;whiteSpace=wrap;rounded=0;" parent="1" vertex="1">
          <mxGeometry x="-180" y="204" width="90" height="30" as="geometry" />
        </mxCell>
        <mxCell id="zgwpxaIfBUWsn_owNHMs-41" value="" style="endArrow=classic;html=1;rounded=0;" parent="1" edge="1">
          <mxGeometry width="50" height="50" relative="1" as="geometry">
            <mxPoint x="-660" y="320" as="sourcePoint" />
            <mxPoint x="-465" y="320" as="targetPoint" />
          </mxGeometry>
        </mxCell>
        <mxCell id="zgwpxaIfBUWsn_owNHMs-42" value="" style="ellipse;whiteSpace=wrap;html=1;aspect=fixed;" parent="1" vertex="1">
          <mxGeometry x="-465" y="280" width="100" height="100" as="geometry" />
        </mxCell>
        <mxCell id="zgwpxaIfBUWsn_owNHMs-43" value="" style="endArrow=none;html=1;rounded=0;" parent="1" edge="1">
          <mxGeometry width="50" height="50" relative="1" as="geometry">
            <mxPoint x="-460" y="310" as="sourcePoint" />
            <mxPoint x="-370" y="310" as="targetPoint" />
          </mxGeometry>
        </mxCell>
        <mxCell id="zgwpxaIfBUWsn_owNHMs-45" value="Manage&lt;br&gt;Order" style="text;html=1;strokeColor=none;fillColor=none;align=center;verticalAlign=middle;whiteSpace=wrap;rounded=0;" parent="1" vertex="1">
          <mxGeometry x="-445" y="330" width="60" height="30" as="geometry" />
        </mxCell>
        <mxCell id="zgwpxaIfBUWsn_owNHMs-46" value="" style="endArrow=classic;html=1;rounded=0;" parent="1" edge="1">
          <mxGeometry width="50" height="50" relative="1" as="geometry">
            <mxPoint x="-215" y="320" as="sourcePoint" />
            <mxPoint x="-365" y="320" as="targetPoint" />
          </mxGeometry>
        </mxCell>
        <mxCell id="zgwpxaIfBUWsn_owNHMs-47" value="" style="endArrow=classic;html=1;rounded=0;" parent="1" edge="1">
          <mxGeometry width="50" height="50" relative="1" as="geometry">
            <mxPoint x="-333" y="360" as="sourcePoint" />
            <mxPoint x="-213" y="360" as="targetPoint" />
            <Array as="points">
              <mxPoint x="-373" y="360" />
            </Array>
          </mxGeometry>
        </mxCell>
        <mxCell id="zgwpxaIfBUWsn_owNHMs-48" value="" style="endArrow=none;html=1;rounded=0;" parent="1" edge="1">
          <mxGeometry width="50" height="50" relative="1" as="geometry">
            <mxPoint x="-200" y="359" as="sourcePoint" />
            <mxPoint x="-80" y="359" as="targetPoint" />
          </mxGeometry>
        </mxCell>
        <mxCell id="zgwpxaIfBUWsn_owNHMs-49" value="" style="endArrow=none;html=1;rounded=0;" parent="1" edge="1">
          <mxGeometry width="50" height="50" relative="1" as="geometry">
            <mxPoint x="-200" y="318" as="sourcePoint" />
            <mxPoint x="-80" y="319" as="targetPoint" />
          </mxGeometry>
        </mxCell>
        <mxCell id="zgwpxaIfBUWsn_owNHMs-50" value="Order Master" style="text;html=1;strokeColor=none;fillColor=none;align=center;verticalAlign=middle;whiteSpace=wrap;rounded=0;" parent="1" vertex="1">
          <mxGeometry x="-178" y="324" width="80" height="30" as="geometry" />
        </mxCell>
        <mxCell id="zgwpxaIfBUWsn_owNHMs-51" value="" style="edgeStyle=segmentEdgeStyle;endArrow=classic;html=1;curved=0;rounded=0;endSize=8;startSize=8;exitX=0.05;exitY=0.8;exitDx=0;exitDy=0;exitPerimeter=0;" parent="1" edge="1">
          <mxGeometry width="50" height="50" relative="1" as="geometry">
            <mxPoint x="-458" y="360" as="sourcePoint" />
            <mxPoint x="-681" y="130" as="targetPoint" />
          </mxGeometry>
        </mxCell>
        <mxCell id="zgwpxaIfBUWsn_owNHMs-52" value="" style="endArrow=none;html=1;rounded=0;" parent="1" edge="1">
          <mxGeometry width="50" height="50" relative="1" as="geometry">
            <mxPoint x="-660" y="320" as="sourcePoint" />
            <mxPoint x="-660" y="130" as="targetPoint" />
          </mxGeometry>
        </mxCell>
        <mxCell id="zgwpxaIfBUWsn_owNHMs-64" value="" style="edgeStyle=segmentEdgeStyle;endArrow=classic;html=1;curved=0;rounded=0;endSize=8;startSize=8;exitX=0.04;exitY=0.766;exitDx=0;exitDy=0;exitPerimeter=0;" parent="1" source="zgwpxaIfBUWsn_owNHMs-67" edge="1">
          <mxGeometry width="50" height="50" relative="1" as="geometry">
            <mxPoint x="-465" y="480" as="sourcePoint" />
            <mxPoint x="-720" y="130" as="targetPoint" />
            <Array as="points">
              <mxPoint x="-720" y="480" />
            </Array>
          </mxGeometry>
        </mxCell>
        <mxCell id="zgwpxaIfBUWsn_owNHMs-65" value="" style="endArrow=none;html=1;rounded=0;" parent="1" edge="1">
          <mxGeometry width="50" height="50" relative="1" as="geometry">
            <mxPoint x="-700" y="440" as="sourcePoint" />
            <mxPoint x="-700" y="130" as="targetPoint" />
          </mxGeometry>
        </mxCell>
        <mxCell id="zgwpxaIfBUWsn_owNHMs-66" value="" style="endArrow=classic;html=1;rounded=0;" parent="1" edge="1">
          <mxGeometry width="50" height="50" relative="1" as="geometry">
            <mxPoint x="-700" y="440" as="sourcePoint" />
            <mxPoint x="-465" y="440" as="targetPoint" />
          </mxGeometry>
        </mxCell>
        <mxCell id="zgwpxaIfBUWsn_owNHMs-67" value="" style="ellipse;whiteSpace=wrap;html=1;aspect=fixed;" parent="1" vertex="1">
          <mxGeometry x="-465" y="400" width="105" height="105" as="geometry" />
        </mxCell>
        <mxCell id="zgwpxaIfBUWsn_owNHMs-73" value="" style="endArrow=classic;html=1;rounded=0;" parent="1" edge="1">
          <mxGeometry width="50" height="50" relative="1" as="geometry">
            <mxPoint x="-210" y="442" as="sourcePoint" />
            <mxPoint x="-360" y="442" as="targetPoint" />
          </mxGeometry>
        </mxCell>
        <mxCell id="zgwpxaIfBUWsn_owNHMs-74" value="" style="endArrow=classic;html=1;rounded=0;" parent="1" edge="1">
          <mxGeometry width="50" height="50" relative="1" as="geometry">
            <mxPoint x="-327" y="482" as="sourcePoint" />
            <mxPoint x="-207" y="482" as="targetPoint" />
            <Array as="points">
              <mxPoint x="-367" y="482" />
            </Array>
          </mxGeometry>
        </mxCell>
        <mxCell id="zgwpxaIfBUWsn_owNHMs-75" value="" style="endArrow=none;html=1;rounded=0;" parent="1" edge="1">
          <mxGeometry width="50" height="50" relative="1" as="geometry">
            <mxPoint x="-195" y="481" as="sourcePoint" />
            <mxPoint x="-75" y="481" as="targetPoint" />
          </mxGeometry>
        </mxCell>
        <mxCell id="zgwpxaIfBUWsn_owNHMs-76" value="" style="endArrow=none;html=1;rounded=0;" parent="1" edge="1">
          <mxGeometry width="50" height="50" relative="1" as="geometry">
            <mxPoint x="-195" y="440" as="sourcePoint" />
            <mxPoint x="-75" y="441" as="targetPoint" />
          </mxGeometry>
        </mxCell>
        <mxCell id="zgwpxaIfBUWsn_owNHMs-77" value="Customer Master" style="text;html=1;strokeColor=none;fillColor=none;align=center;verticalAlign=middle;whiteSpace=wrap;rounded=0;" parent="1" vertex="1">
          <mxGeometry x="-185" y="446" width="100" height="30" as="geometry" />
        </mxCell>
        <mxCell id="zgwpxaIfBUWsn_owNHMs-78" value="" style="endArrow=none;html=1;rounded=0;entryX=0.964;entryY=0.306;entryDx=0;entryDy=0;entryPerimeter=0;exitX=0.062;exitY=0.306;exitDx=0;exitDy=0;exitPerimeter=0;" parent="1" edge="1">
          <mxGeometry width="50" height="50" relative="1" as="geometry">
            <mxPoint x="-458.49" y="430.13" as="sourcePoint" />
            <mxPoint x="-363.78" y="430.13" as="targetPoint" />
          </mxGeometry>
        </mxCell>
        <mxCell id="zgwpxaIfBUWsn_owNHMs-79" value="3.0" style="text;html=1;strokeColor=none;fillColor=none;align=center;verticalAlign=middle;whiteSpace=wrap;rounded=0;" parent="1" vertex="1">
          <mxGeometry x="-445" y="283" width="60" height="30" as="geometry" />
        </mxCell>
        <mxCell id="zgwpxaIfBUWsn_owNHMs-80" value="Manage Customer" style="text;html=1;strokeColor=none;fillColor=none;align=center;verticalAlign=middle;whiteSpace=wrap;rounded=0;" parent="1" vertex="1">
          <mxGeometry x="-442.5" y="450" width="60" height="30" as="geometry" />
        </mxCell>
        <mxCell id="zgwpxaIfBUWsn_owNHMs-81" value="4.0" style="text;html=1;strokeColor=none;fillColor=none;align=center;verticalAlign=middle;whiteSpace=wrap;rounded=0;" parent="1" vertex="1">
          <mxGeometry x="-445" y="408" width="60" height="20" as="geometry" />
        </mxCell>
        <mxCell id="zgwpxaIfBUWsn_owNHMs-85" value="" style="ellipse;whiteSpace=wrap;html=1;aspect=fixed;" parent="1" vertex="1">
          <mxGeometry x="-467.5" y="520" width="105" height="105" as="geometry" />
        </mxCell>
        <mxCell id="zgwpxaIfBUWsn_owNHMs-86" value="" style="endArrow=none;html=1;rounded=0;exitX=0.06;exitY=0.288;exitDx=0;exitDy=0;exitPerimeter=0;" parent="1" source="zgwpxaIfBUWsn_owNHMs-85" edge="1">
          <mxGeometry width="50" height="50" relative="1" as="geometry">
            <mxPoint x="-464" y="551" as="sourcePoint" />
            <mxPoint x="-370" y="550" as="targetPoint" />
          </mxGeometry>
        </mxCell>
        <mxCell id="zgwpxaIfBUWsn_owNHMs-87" value="" style="endArrow=classic;html=1;rounded=0;" parent="1" edge="1">
          <mxGeometry width="50" height="50" relative="1" as="geometry">
            <mxPoint x="-740" y="560" as="sourcePoint" />
            <mxPoint x="-465" y="560" as="targetPoint" />
          </mxGeometry>
        </mxCell>
        <mxCell id="zgwpxaIfBUWsn_owNHMs-88" value="" style="endArrow=none;html=1;rounded=0;" parent="1" edge="1">
          <mxGeometry width="50" height="50" relative="1" as="geometry">
            <mxPoint x="-741" y="560" as="sourcePoint" />
            <mxPoint x="-740.95" y="130" as="targetPoint" />
          </mxGeometry>
        </mxCell>
        <mxCell id="zgwpxaIfBUWsn_owNHMs-89" value="" style="endArrow=classic;html=1;rounded=0;" parent="1" edge="1">
          <mxGeometry width="50" height="50" relative="1" as="geometry">
            <mxPoint x="-212.5" y="562" as="sourcePoint" />
            <mxPoint x="-362.5" y="562" as="targetPoint" />
          </mxGeometry>
        </mxCell>
        <mxCell id="zgwpxaIfBUWsn_owNHMs-90" value="" style="endArrow=classic;html=1;rounded=0;" parent="1" edge="1">
          <mxGeometry width="50" height="50" relative="1" as="geometry">
            <mxPoint x="-322.5" y="602" as="sourcePoint" />
            <mxPoint x="-202.5" y="602" as="targetPoint" />
            <Array as="points">
              <mxPoint x="-370" y="602" />
            </Array>
          </mxGeometry>
        </mxCell>
        <mxCell id="zgwpxaIfBUWsn_owNHMs-91" value="" style="endArrow=none;html=1;rounded=0;" parent="1" edge="1">
          <mxGeometry width="50" height="50" relative="1" as="geometry">
            <mxPoint x="-197.5" y="601" as="sourcePoint" />
            <mxPoint x="-77.5" y="601" as="targetPoint" />
          </mxGeometry>
        </mxCell>
        <mxCell id="zgwpxaIfBUWsn_owNHMs-92" value="" style="endArrow=none;html=1;rounded=0;" parent="1" edge="1">
          <mxGeometry width="50" height="50" relative="1" as="geometry">
            <mxPoint x="-197.5" y="560" as="sourcePoint" />
            <mxPoint x="-77.5" y="561" as="targetPoint" />
          </mxGeometry>
        </mxCell>
        <mxCell id="zgwpxaIfBUWsn_owNHMs-93" value="Feedback Master" style="text;html=1;strokeColor=none;fillColor=none;align=center;verticalAlign=middle;whiteSpace=wrap;rounded=0;" parent="1" vertex="1">
          <mxGeometry x="-185" y="698.12" width="100" height="30" as="geometry" />
        </mxCell>
        <mxCell id="zgwpxaIfBUWsn_owNHMs-94" value="5.0" style="text;html=1;strokeColor=none;fillColor=none;align=center;verticalAlign=middle;whiteSpace=wrap;rounded=0;" parent="1" vertex="1">
          <mxGeometry x="-445" y="520" width="60" height="30" as="geometry" />
        </mxCell>
        <mxCell id="zgwpxaIfBUWsn_owNHMs-95" value="Manage Pyament" style="text;html=1;strokeColor=none;fillColor=none;align=center;verticalAlign=middle;whiteSpace=wrap;rounded=0;" parent="1" vertex="1">
          <mxGeometry x="-445" y="565" width="60" height="30" as="geometry" />
        </mxCell>
        <mxCell id="zgwpxaIfBUWsn_owNHMs-96" value="" style="edgeStyle=segmentEdgeStyle;endArrow=classic;html=1;curved=0;rounded=0;endSize=8;startSize=8;exitX=0.031;exitY=0.747;exitDx=0;exitDy=0;exitPerimeter=0;" parent="1" edge="1">
          <mxGeometry width="50" height="50" relative="1" as="geometry">
            <mxPoint x="-462.02499999999986" y="598.435" as="sourcePoint" />
            <mxPoint x="-767.78" y="130" as="targetPoint" />
            <Array as="points">
              <mxPoint x="-461.78" y="600" />
              <mxPoint x="-767.78" y="600" />
            </Array>
          </mxGeometry>
        </mxCell>
        <mxCell id="zgwpxaIfBUWsn_owNHMs-97" value="" style="endArrow=none;html=1;rounded=0;" parent="1" edge="1">
          <mxGeometry width="50" height="50" relative="1" as="geometry">
            <mxPoint x="-790" y="700" as="sourcePoint" />
            <mxPoint x="-789.95" y="130" as="targetPoint" />
          </mxGeometry>
        </mxCell>
        <mxCell id="zgwpxaIfBUWsn_owNHMs-98" value="" style="endArrow=classic;html=1;rounded=0;" parent="1" edge="1">
          <mxGeometry width="50" height="50" relative="1" as="geometry">
            <mxPoint x="-790" y="700" as="sourcePoint" />
            <mxPoint x="-465.0010208290794" y="702.8140839873953" as="targetPoint" />
          </mxGeometry>
        </mxCell>
        <mxCell id="zgwpxaIfBUWsn_owNHMs-99" value="" style="ellipse;whiteSpace=wrap;html=1;aspect=fixed;" parent="1" vertex="1">
          <mxGeometry x="-466.25" y="660" width="106.25" height="106.25" as="geometry" />
        </mxCell>
        <mxCell id="zgwpxaIfBUWsn_owNHMs-101" value="" style="endArrow=none;html=1;rounded=0;entryX=0.978;entryY=0.35;entryDx=0;entryDy=0;entryPerimeter=0;exitX=0.036;exitY=0.357;exitDx=0;exitDy=0;exitPerimeter=0;" parent="1" edge="1">
          <mxGeometry width="50" height="50" relative="1" as="geometry">
            <mxPoint x="-462.42499999999995" y="693.9312500000001" as="sourcePoint" />
            <mxPoint x="-362.33749999999986" y="693.1875" as="targetPoint" />
          </mxGeometry>
        </mxCell>
        <mxCell id="zgwpxaIfBUWsn_owNHMs-102" value="6.0" style="text;html=1;strokeColor=none;fillColor=none;align=center;verticalAlign=middle;whiteSpace=wrap;rounded=0;" parent="1" vertex="1">
          <mxGeometry x="-443.12" y="664" width="60" height="30" as="geometry" />
        </mxCell>
        <mxCell id="zgwpxaIfBUWsn_owNHMs-108" value="" style="endArrow=classic;html=1;rounded=0;" parent="1" edge="1">
          <mxGeometry width="50" height="50" relative="1" as="geometry">
            <mxPoint x="-210" y="693.74" as="sourcePoint" />
            <mxPoint x="-360" y="693.74" as="targetPoint" />
          </mxGeometry>
        </mxCell>
        <mxCell id="zgwpxaIfBUWsn_owNHMs-109" value="" style="endArrow=classic;html=1;rounded=0;" parent="1" edge="1">
          <mxGeometry width="50" height="50" relative="1" as="geometry">
            <mxPoint x="-324" y="733.74" as="sourcePoint" />
            <mxPoint x="-204" y="733.74" as="targetPoint" />
            <Array as="points">
              <mxPoint x="-364" y="733.74" />
            </Array>
          </mxGeometry>
        </mxCell>
        <mxCell id="zgwpxaIfBUWsn_owNHMs-110" value="" style="endArrow=none;html=1;rounded=0;" parent="1" edge="1">
          <mxGeometry width="50" height="50" relative="1" as="geometry">
            <mxPoint x="-195" y="732.74" as="sourcePoint" />
            <mxPoint x="-75" y="732.74" as="targetPoint" />
          </mxGeometry>
        </mxCell>
        <mxCell id="zgwpxaIfBUWsn_owNHMs-111" value="" style="endArrow=none;html=1;rounded=0;" parent="1" edge="1">
          <mxGeometry width="50" height="50" relative="1" as="geometry">
            <mxPoint x="-195" y="691.74" as="sourcePoint" />
            <mxPoint x="-75" y="692.74" as="targetPoint" />
          </mxGeometry>
        </mxCell>
        <mxCell id="zgwpxaIfBUWsn_owNHMs-112" value="Payment Master" style="text;html=1;strokeColor=none;fillColor=none;align=center;verticalAlign=middle;whiteSpace=wrap;rounded=0;" parent="1" vertex="1">
          <mxGeometry x="-190" y="565" width="100" height="30" as="geometry" />
        </mxCell>
        <mxCell id="zgwpxaIfBUWsn_owNHMs-113" value="" style="edgeStyle=segmentEdgeStyle;endArrow=classic;html=1;curved=0;rounded=0;endSize=8;startSize=8;exitX=0.196;exitY=0.956;exitDx=0;exitDy=0;exitPerimeter=0;" parent="1" edge="1">
          <mxGeometry width="50" height="50" relative="1" as="geometry">
            <mxPoint x="-460.025" y="735.7850000000001" as="sourcePoint" />
            <mxPoint x="-805" y="130" as="targetPoint" />
            <Array as="points">
              <mxPoint x="-460" y="734" />
              <mxPoint x="-805" y="734" />
            </Array>
          </mxGeometry>
        </mxCell>
        <mxCell id="zgwpxaIfBUWsn_owNHMs-114" value="View Feedback" style="text;html=1;strokeColor=none;fillColor=none;align=center;verticalAlign=middle;whiteSpace=wrap;rounded=0;" parent="1" vertex="1">
          <mxGeometry x="-443.12" y="710" width="60" height="30" as="geometry" />
        </mxCell>
        <mxCell id="zgwpxaIfBUWsn_owNHMs-116" value="Response" style="text;html=1;strokeColor=none;fillColor=none;align=center;verticalAlign=middle;whiteSpace=wrap;rounded=0;" parent="1" vertex="1">
          <mxGeometry x="-320" y="120" width="60" height="30" as="geometry" />
        </mxCell>
        <mxCell id="zgwpxaIfBUWsn_owNHMs-117" value="Response" style="text;html=1;strokeColor=none;fillColor=none;align=center;verticalAlign=middle;whiteSpace=wrap;rounded=0;" parent="1" vertex="1">
          <mxGeometry x="-560" y="120" width="60" height="30" as="geometry" />
        </mxCell>
        <mxCell id="zgwpxaIfBUWsn_owNHMs-118" value="Response" style="text;html=1;strokeColor=none;fillColor=none;align=center;verticalAlign=middle;whiteSpace=wrap;rounded=0;" parent="1" vertex="1">
          <mxGeometry x="-570" y="240" width="60" height="30" as="geometry" />
        </mxCell>
        <mxCell id="zgwpxaIfBUWsn_owNHMs-119" value="Response" style="text;html=1;strokeColor=none;fillColor=none;align=center;verticalAlign=middle;whiteSpace=wrap;rounded=0;" parent="1" vertex="1">
          <mxGeometry x="-310" y="240" width="60" height="30" as="geometry" />
        </mxCell>
        <mxCell id="zgwpxaIfBUWsn_owNHMs-120" value="Response" style="text;html=1;strokeColor=none;fillColor=none;align=center;verticalAlign=middle;whiteSpace=wrap;rounded=0;" parent="1" vertex="1">
          <mxGeometry x="-600" y="360" width="60" height="30" as="geometry" />
        </mxCell>
        <mxCell id="zgwpxaIfBUWsn_owNHMs-121" value="Response" style="text;html=1;strokeColor=none;fillColor=none;align=center;verticalAlign=middle;whiteSpace=wrap;rounded=0;" parent="1" vertex="1">
          <mxGeometry x="-310" y="360" width="60" height="30" as="geometry" />
        </mxCell>
        <mxCell id="zgwpxaIfBUWsn_owNHMs-122" value="Response" style="text;html=1;strokeColor=none;fillColor=none;align=center;verticalAlign=middle;whiteSpace=wrap;rounded=0;" parent="1" vertex="1">
          <mxGeometry x="-620" y="480" width="60" height="30" as="geometry" />
        </mxCell>
        <mxCell id="zgwpxaIfBUWsn_owNHMs-126" value="Response" style="text;html=1;strokeColor=none;fillColor=none;align=center;verticalAlign=middle;whiteSpace=wrap;rounded=0;" parent="1" vertex="1">
          <mxGeometry x="-650" y="600" width="60" height="30" as="geometry" />
        </mxCell>
        <mxCell id="zgwpxaIfBUWsn_owNHMs-127" value="Response" style="text;html=1;strokeColor=none;fillColor=none;align=center;verticalAlign=middle;whiteSpace=wrap;rounded=0;" parent="1" vertex="1">
          <mxGeometry x="-660" y="736.25" width="60" height="30" as="geometry" />
        </mxCell>
        <mxCell id="zgwpxaIfBUWsn_owNHMs-128" value="Add or Delete Item" style="text;html=1;strokeColor=none;fillColor=none;align=center;verticalAlign=middle;whiteSpace=wrap;rounded=0;" parent="1" vertex="1">
          <mxGeometry x="-600" y="170" width="110" height="30" as="geometry" />
        </mxCell>
        <mxCell id="zgwpxaIfBUWsn_owNHMs-129" value="Insert or Delete Item" style="text;html=1;strokeColor=none;fillColor=none;align=center;verticalAlign=middle;whiteSpace=wrap;rounded=0;" parent="1" vertex="1">
          <mxGeometry x="-350" y="170" width="117.5" height="30" as="geometry" />
        </mxCell>
        <mxCell id="zgwpxaIfBUWsn_owNHMs-131" value="Confirm or Cancle Order" style="text;html=1;strokeColor=none;fillColor=none;align=center;verticalAlign=middle;whiteSpace=wrap;rounded=0;" parent="1" vertex="1">
          <mxGeometry x="-640" y="290" width="140" height="30" as="geometry" />
        </mxCell>
        <mxCell id="zgwpxaIfBUWsn_owNHMs-132" value="View Order" style="text;html=1;strokeColor=none;fillColor=none;align=center;verticalAlign=middle;whiteSpace=wrap;rounded=0;" parent="1" vertex="1">
          <mxGeometry x="-320" y="290" width="70" height="30" as="geometry" />
        </mxCell>
        <mxCell id="zgwpxaIfBUWsn_owNHMs-133" value="View Customer Info" style="text;html=1;strokeColor=none;fillColor=none;align=center;verticalAlign=middle;whiteSpace=wrap;rounded=0;" parent="1" vertex="1">
          <mxGeometry x="-335" y="410" width="110" height="30" as="geometry" />
        </mxCell>
        <mxCell id="zgwpxaIfBUWsn_owNHMs-134" value="Display Customer Info" style="text;html=1;strokeColor=none;fillColor=none;align=center;verticalAlign=middle;whiteSpace=wrap;rounded=0;" parent="1" vertex="1">
          <mxGeometry x="-360" y="480" width="125" height="30" as="geometry" />
        </mxCell>
        <mxCell id="zgwpxaIfBUWsn_owNHMs-135" value="Manage Payment Record&amp;nbsp;" style="text;html=1;strokeColor=none;fillColor=none;align=center;verticalAlign=middle;whiteSpace=wrap;rounded=0;" parent="1" vertex="1">
          <mxGeometry x="-690" y="530" width="150" height="30" as="geometry" />
        </mxCell>
        <mxCell id="zgwpxaIfBUWsn_owNHMs-136" value="View Payment Detail" style="text;html=1;strokeColor=none;fillColor=none;align=center;verticalAlign=middle;whiteSpace=wrap;rounded=0;" parent="1" vertex="1">
          <mxGeometry x="-345" y="535" width="140" height="30" as="geometry" />
        </mxCell>
        <mxCell id="zgwpxaIfBUWsn_owNHMs-137" value="Display Payment Detail" style="text;html=1;strokeColor=none;fillColor=none;align=center;verticalAlign=middle;whiteSpace=wrap;rounded=0;" parent="1" vertex="1">
          <mxGeometry x="-355" y="600" width="140" height="30" as="geometry" />
        </mxCell>
        <mxCell id="zgwpxaIfBUWsn_owNHMs-138" value="Request For Rating And Feedback" style="text;html=1;strokeColor=none;fillColor=none;align=center;verticalAlign=middle;whiteSpace=wrap;rounded=0;" parent="1" vertex="1">
          <mxGeometry x="-740" y="670" width="210" height="30" as="geometry" />
        </mxCell>
        <mxCell id="zgwpxaIfBUWsn_owNHMs-139" value="View Rating And Feedback" style="text;html=1;strokeColor=none;fillColor=none;align=center;verticalAlign=middle;whiteSpace=wrap;rounded=0;" parent="1" vertex="1">
          <mxGeometry x="-365" y="660" width="160" height="30" as="geometry" />
        </mxCell>
        <mxCell id="zgwpxaIfBUWsn_owNHMs-141" value="Display Customer Rating And Feedback" style="text;html=1;strokeColor=none;fillColor=none;align=center;verticalAlign=middle;whiteSpace=wrap;rounded=0;" parent="1" vertex="1">
          <mxGeometry x="-345" y="750" width="115" height="30" as="geometry" />
        </mxCell>
        <mxCell id="ua0aeTxGW8Ati1CmODzh-1" value="Request for Login" style="text;html=1;align=center;verticalAlign=middle;resizable=0;points=[];autosize=1;strokeColor=none;fillColor=none;" parent="1" vertex="1">
          <mxGeometry x="-590" y="50" width="120" height="30" as="geometry" />
        </mxCell>
        <mxCell id="ua0aeTxGW8Ati1CmODzh-2" value="Request for Login" style="text;html=1;align=center;verticalAlign=middle;resizable=0;points=[];autosize=1;strokeColor=none;fillColor=none;" parent="1" vertex="1">
          <mxGeometry x="-345" y="50" width="120" height="30" as="geometry" />
        </mxCell>
        <mxCell id="ua0aeTxGW8Ati1CmODzh-3" value="Manage Customer Record" style="text;html=1;align=center;verticalAlign=middle;resizable=0;points=[];autosize=1;strokeColor=none;fillColor=none;" parent="1" vertex="1">
          <mxGeometry x="-660" y="410" width="160" height="30" as="geometry" />
        </mxCell>
      </root>
    </mxGraphModel>
  </diagram>
</mxfile>
